<svg width="17" height="17" viewBox="0 0 17 17" fill="none" xmlns="http://www.w3.org/2000/svg">
<g clip-path="url(#clip0_151_72)">
<path d="M0.708252 0.708374H3.54159L5.43992 10.193C5.50469 10.5191 5.6821 10.812 5.9411 11.0205C6.20009 11.229 6.52416 11.3397 6.85659 11.3334H13.7416C14.074 11.3397 14.3981 11.229 14.6571 11.0205C14.9161 10.812 15.0935 10.5191 15.1583 10.193L16.2916 4.25004H4.24992M7.08325 14.875C7.08325 15.2662 6.76612 15.5834 6.37492 15.5834C5.98372 15.5834 5.66659 15.2662 5.66659 14.875C5.66659 14.4838 5.98372 14.1667 6.37492 14.1667C6.76612 14.1667 7.08325 14.4838 7.08325 14.875ZM14.8749 14.875C14.8749 15.2662 14.5578 15.5834 14.1666 15.5834C13.7754 15.5834 13.4583 15.2662 13.4583 14.875C13.4583 14.4838 13.7754 14.1667 14.1666 14.1667C14.5578 14.1667 14.8749 14.4838 14.8749 14.875Z" stroke="#1B1E84" stroke-width="2" stroke-linecap="round" stroke-linejoin="round"/>
</g>
<defs>
<clipPath id="clip0_151_72">
<rect width="17" height="17" fill="white"/>
</clipPath>
</defs>
</svg>
