<svg width="34" height="34" viewBox="0 0 34 34" fill="none" xmlns="http://www.w3.org/2000/svg">
<path d="M26.9166 11.3333C25.736 11.3333 24.7326 10.9201 23.9062 10.0937C23.0798 9.26728 22.6666 8.26381 22.6666 7.08325C22.6666 5.9027 23.0798 4.89922 23.9062 4.07284C24.7326 3.24645 25.736 2.83325 26.9166 2.83325C28.0971 2.83325 29.1006 3.24645 29.927 4.07284C30.7534 4.89922 31.1666 5.9027 31.1666 7.08325C31.1666 8.26381 30.7534 9.26728 29.927 10.0937C29.1006 10.9201 28.0971 11.3333 26.9166 11.3333ZM5.66659 28.3333C4.88742 28.3333 4.2204 28.0558 3.66554 27.501C3.11068 26.9461 2.83325 26.2791 2.83325 25.4999V8.49992C2.83325 7.72075 3.11068 7.05374 3.66554 6.49888C4.2204 5.94402 4.88742 5.66659 5.66659 5.66659H19.9749C19.8805 6.13881 19.8333 6.61103 19.8333 7.08325C19.8333 7.55547 19.8805 8.0277 19.9749 8.49992C20.1402 9.25547 20.4117 9.9579 20.7895 10.6072C21.1673 11.2565 21.6277 11.8291 22.1708 12.3249L16.9999 15.5833L5.66659 8.49992V11.3333L16.9999 18.4166L24.4728 13.7416C24.8742 13.8833 25.2756 13.9895 25.677 14.0603C26.0784 14.1312 26.4916 14.1666 26.9166 14.1666C27.6721 14.1666 28.4159 14.0485 29.1478 13.8124C29.8798 13.5763 30.5527 13.2221 31.1666 12.7499V25.4999C31.1666 26.2791 30.8892 26.9461 30.3343 27.501C29.7794 28.0558 29.1124 28.3333 28.3333 28.3333H5.66659Z" fill="#1D1B20"/>
</svg>
