<svg width="34" height="34" viewBox="0 0 34 34" fill="none" xmlns="http://www.w3.org/2000/svg">
<path d="M16.9999 24.0835C17.4013 24.0835 17.7378 23.9477 18.0093 23.6762C18.2808 23.4047 18.4166 23.0682 18.4166 22.6668C18.4166 22.2654 18.2808 21.929 18.0093 21.6575C17.7378 21.3859 17.4013 21.2502 16.9999 21.2502C16.5985 21.2502 16.2621 21.3859 15.9905 21.6575C15.719 21.929 15.5833 22.2654 15.5833 22.6668C15.5833 23.0682 15.719 23.4047 15.9905 23.6762C16.2621 23.9477 16.5985 24.0835 16.9999 24.0835ZM15.5833 18.4168H18.4166V9.91683H15.5833V18.4168ZM16.9999 31.1668C15.0402 31.1668 13.1985 30.795 11.4749 30.0512C9.75131 29.3075 8.252 28.2981 6.977 27.0231C5.702 25.7481 4.69263 24.2488 3.94888 22.5252C3.20513 20.8016 2.83325 18.9599 2.83325 17.0002C2.83325 15.0404 3.20513 13.1988 3.94888 11.4752C4.69263 9.75155 5.702 8.25225 6.977 6.97725C8.252 5.70225 9.75131 4.69287 11.4749 3.94912C13.1985 3.20537 15.0402 2.8335 16.9999 2.8335C18.9596 2.8335 20.8013 3.20537 22.5249 3.94912C24.2485 4.69287 25.7478 5.70225 27.0228 6.97725C28.2978 8.25225 29.3072 9.75155 30.051 11.4752C30.7947 13.1988 31.1666 15.0404 31.1666 17.0002C31.1666 18.9599 30.7947 20.8016 30.051 22.5252C29.3072 24.2488 28.2978 25.7481 27.0228 27.0231C25.7478 28.2981 24.2485 29.3075 22.5249 30.0512C20.8013 30.795 18.9596 31.1668 16.9999 31.1668Z" fill="#1D1B20"/>
</svg>
